<svg xmlns="http://www.w3.org/2000/svg" version="1.1" xmlns:xlink="http://www.w3.org/1999/xlink" xmlns:svgjs="http://svgjs.dev/svgjs" viewBox="0 0 800 800"><defs><radialGradient id="ccclaymoji-grad-dark" r="93%" cx="20%" cy="20%">
      <stop offset="70%" stop-color="hsl(37, 75%, 58%)" stop-opacity="0"></stop>
      <stop offset="97%" stop-color="#ae780f" stop-opacity="1"></stop>
    </radialGradient><radialGradient id="ccclaymoji-grad-light" r="65%" cx="28%" cy="20%">
    <stop offset="0%" stop-color="#ffd874" stop-opacity="0.75"></stop>
    <stop offset="100%" stop-color="hsl(37, 75%, 58%)" stop-opacity="0"></stop>
  </radialGradient><filter id="ccclaymoji-blur" x="-100%" y="-100%" width="400%" height="400%" filterUnits="objectBoundingBox" primitiveUnits="userSpaceOnUse" color-interpolation-filters="sRGB">
	<feGaussianBlur stdDeviation="32" x="0%" y="0%" width="100%" height="100%" in="SourceGraphic" edgeMode="none" result="blur"></feGaussianBlur></filter><filter id="inner-blur" x="-100%" y="-100%" width="400%" height="400%" filterUnits="objectBoundingBox" primitiveUnits="userSpaceOnUse" color-interpolation-filters="sRGB">
	<feGaussianBlur stdDeviation="2" x="0%" y="0%" width="100%" height="100%" in="SourceGraphic" edgeMode="none" result="blur"></feGaussianBlur></filter><filter id="eye-shadow" x="-100%" y="-100%" width="400%" height="400%" filterUnits="objectBoundingBox" primitiveUnits="userSpaceOnUse" color-interpolation-filters="sRGB">
	<feDropShadow stdDeviation="10" dx="10" dy="10" flood-color="#000000" flood-opacity="0.2" x="0%" y="0%" width="100%" height="100%" result="dropShadow"></feDropShadow>
</filter><linearGradient gradientTransform="rotate(0)" id="eye-light" x1="50%" y1="0%" x2="50%" y2="100%">
      <stop offset="20%" stop-color="#555555" stop-opacity="1"></stop>
      <stop offset="100%" stop-color="black" stop-opacity="0"></stop>
    </linearGradient><linearGradient id="mouth-light" x1="50%" y1="0%" x2="50%" y2="100%">
    <stop offset="0%" stop-color="#ff9667" stop-opacity="1"></stop>
    <stop offset="100%" stop-color="hsl(3, 100%, 51%)" stop-opacity="0"></stop>
  </linearGradient><filter id="mouth-shadow" x="-100%" y="-100%" width="400%" height="400%" filterUnits="objectBoundingBox" primitiveUnits="userSpaceOnUse" color-interpolation-filters="sRGB">
	<feDropShadow stdDeviation="10" dx="10" dy="10" flood-color="#c20000" flood-opacity="0.2" x="0%" y="0%" width="100%" height="100%" result="dropShadow"></feDropShadow>
</filter></defs><g stroke-linecap="round"><path d="M668.5 416.9999981080747C668.5 531.1068309921718 596.106832884097 623.607814819665 482 623.607814819665C367.89366981132076 623.607814819665 295.5 531.1068309921718 295.5 416.9999981080747C295.5 302.8936679193954 367.89366981132076 210.39218139648438 482 210.39218139648438C596.106832884097 210.39218139648438 668.5 302.8936679193954 668.5 416.9999981080747Z " fill="#ae780f" opacity="0.38" filter="url(#ccclaymoji-blur)"></path><path d="M586.5 400.0000046515397C586.5 520.6086513751864 520.6086467236466 575.8732240247591 400 575.8732240247591C279.3918846153846 575.8732240247591 213.5 520.6086513751864 213.5 400.0000046515397C213.5 279.3918892669243 279.3918846153846 224.1267852783203 400 224.1267852783203C520.6086467236466 224.1267852783203 586.5 279.3918892669243 586.5 400.0000046515397Z " fill="hsl(37, 75%, 58%)"></path><path d="M586.5 400.0000046515397C586.5 520.6086513751864 520.6086467236466 575.8732240247591 400 575.8732240247591C279.3918846153846 575.8732240247591 213.5 520.6086513751864 213.5 400.0000046515397C213.5 279.3918892669243 279.3918846153846 224.1267852783203 400 224.1267852783203C520.6086467236466 224.1267852783203 586.5 279.3918892669243 586.5 400.0000046515397Z " fill="url(#ccclaymoji-grad-dark)"></path><path d="M586.5 400.0000046515397C586.5 520.6086513751864 520.6086467236466 575.8732240247591 400 575.8732240247591C279.3918846153846 575.8732240247591 213.5 520.6086513751864 213.5 400.0000046515397C213.5 279.3918892669243 279.3918846153846 224.1267852783203 400 224.1267852783203C520.6086467236466 224.1267852783203 586.5 279.3918892669243 586.5 400.0000046515397Z " fill="url(#ccclaymoji-grad-light)"></path><ellipse rx="27.5" ry="33" cx="301" cy="356" fill="black" filter="url(#eye-shadow)"></ellipse><ellipse rx="27.5" ry="33" cx="301" cy="356" fill="url(#eye-light)" filter="url(#inner-blur)"></ellipse><ellipse rx="26" ry="30.5" cx="397" cy="373" fill="black" filter="url(#eye-shadow)"></ellipse><ellipse rx="26" ry="30.5" cx="397" cy="373" fill="url(#eye-light)" filter="url(#inner-blur)"></ellipse><path d="M331 483.25Q391 542.25 455 483.25 " stroke-width="26" stroke="hsl(3, 100%, 51%)" fill="none" filter="url(#mouth-shadow)" transform="rotate(319, 400, 400)"></path><path d="M331 483.25Q391 542.25 455 483.25 " stroke-width="8.666666666666666" stroke="url(#mouth-light)" fill="none" filter="url(#inner-blur)" transform="rotate(319, 400, 400)"></path></g></svg>